<svg width="429" height="277" viewBox="0 0 429 277" fill="none" xmlns="http://www.w3.org/2000/svg">
<path d="M251.385 260.614C249.467 206.543 249.562 150.81 265.944 100.461C282.325 50.1115 318.484 5.85989 362.898 0.511306C378.101 -1.32617 394.077 1.64656 406.884 11.7468C419.692 21.8354 428.77 39.7186 427.996 58.2104C427.293 75.3095 418.631 90.5711 408.243 102.181C397.866 113.791 385.618 122.651 374.717 133.547C357.466 150.798 343.741 173.199 335.092 198.198C326.371 223.396 321.403 253.334 302.662 268.514C287.019 281.189 264.073 278.31 250.885 262.042" fill="#672703"/>
<path d="M177.589 260.614C179.507 206.543 179.412 150.81 163.03 100.461C146.649 50.1232 110.49 5.85989 66.0755 0.511306C50.8735 -1.32617 34.897 1.64656 22.0896 11.7468C9.28226 21.8237 0.215833 39.7069 0.978318 58.1987C1.68123 75.2978 10.3426 90.5594 20.7315 102.169C31.1084 113.78 43.3558 122.639 54.257 133.535C71.5082 150.787 85.233 173.187 93.8824 198.186C102.603 223.384 107.571 253.322 126.312 268.502C141.955 281.177 164.901 278.298 178.089 262.03" fill="#8B4300"/>
<path d="M275.201 231.916C274.414 204.33 273.64 176.581 277.214 149.253C280.788 121.925 288.961 94.7603 304.509 72.7574C320.056 50.7545 343.61 34.3928 369.296 32.3329C377.874 31.6424 387.584 33.0937 392.921 40.3265C396.888 45.6985 397.496 53.2591 395.912 59.8951C394.327 66.5311 390.824 72.4414 387.167 78.0592C364.9 112.222 334.746 140.849 318.376 178.641C309.322 199.555 304.258 223.571 288.627 239.418C285.732 242.355 281.848 245.106 278 243.935C272.294 242.203 271.579 233.952 272.02 227.62C273.413 207.666 274.807 187.699 276.201 167.744" fill="#C24D4D"/>
<path d="M154.965 231.917C155.752 204.331 156.526 176.582 152.952 149.254C149.378 121.926 141.205 94.7613 125.657 72.7584C110.11 50.7555 86.5562 34.3937 60.87 32.3339C52.292 31.6434 42.5822 33.0946 37.2448 40.3275C33.2775 45.6995 32.6699 53.2601 34.2544 59.896C35.839 66.532 39.3417 72.4424 42.9992 78.0602C65.2662 112.223 95.4201 140.85 111.79 178.642C120.844 199.556 125.908 223.572 141.539 239.419C144.434 242.356 148.318 245.107 152.166 243.936C157.872 242.204 158.587 233.953 158.146 227.621C156.753 207.667 155.359 187.7 153.965 167.745" fill="#C24D4D"/>
</svg>
