<svg width="331" height="422" viewBox="0 0 331 422" fill="none" xmlns="http://www.w3.org/2000/svg">
<g clip-path="url(#clip0_135_1758)">
<path d="M307.062 0.119141H33.1037C20.1122 0.119141 9.58057 10.4767 9.58057 23.2534V397.919C9.58057 410.696 20.1122 421.054 33.1037 421.054H307.062C320.053 421.054 330.585 410.696 330.585 397.919V23.2534C330.585 10.4767 320.053 0.119141 307.062 0.119141Z" fill="#264653"/>
<path d="M18.6107 0.119141H47.8617V421.054H27.5751C12.7272 421.054 0.670898 409.197 0.670898 394.594V17.7625C0.670898 8.02746 8.71213 0.119141 18.6107 0.119141Z" fill="#246C63"/>
<path d="M248.409 72.0068H82.3681C73.7869 72.0068 66.8306 78.8482 66.8306 87.2875V113.43C66.8306 121.869 73.7869 128.71 82.3681 128.71H248.409C256.99 128.71 263.946 121.869 263.946 113.43V87.2875C263.946 78.8482 256.99 72.0068 248.409 72.0068Z" fill="#3BA89B"/>
<path d="M256.107 253.893H84.4722V265.761H256.107V253.893Z" fill="#3BA89B"/>
<path d="M250.283 278.94H88.7017V290.152H250.283V278.94Z" fill="#3BA89B"/>
<path d="M228.151 302.021H115.518V315.212H228.151V302.021Z" fill="#3BA89B"/>
</g>
<defs>
<clipPath id="clip0_135_1758">
<rect width="329.913" height="420.935" fill="white" transform="translate(0.67041 0.119141)"/>
</clipPath>
</defs>
</svg>
