<svg width="854" height="654" viewBox="0 0 854 654" fill="none" xmlns="http://www.w3.org/2000/svg">
<g clip-path="url(#clip0_56_206)">
<path d="M273.638 426.01L263.953 458.843C248.277 455.926 233.003 464.105 228.823 478.276L226.692 485.5C223.995 494.644 230.018 504.475 240.131 507.458L285.88 520.953L285.903 520.876C302.617 524.995 319.36 516.593 323.809 501.51L340.284 445.657L273.63 425.996L273.638 426.01Z" fill="#FFF6ED"/>
<path d="M719.029 442.192C753.247 452.286 788.679 434.391 798.168 402.223C807.657 370.054 787.61 335.794 753.391 325.7C719.172 315.606 683.74 333.501 674.251 365.67C664.762 397.838 684.81 432.099 719.029 442.192Z" fill="#E6E6E6"/>
<path d="M74.4509 192.429C81.8593 180.463 94.8933 173.019 108.241 168.628C121.588 164.236 135.629 162.411 149.209 158.804C193.051 147.144 229.685 117.653 264.881 88.9207C275.444 80.295 286.007 71.6692 296.571 63.0434C301.22 61.2767 305.869 59.5099 310.519 57.7431L334.99 60.5704C344.036 63.6207 350.623 71.9834 353.33 81.1585C356.026 90.3304 355.275 100.216 353.151 109.553C346.999 136.579 330.067 159.698 313.535 181.944C292.859 209.769 272.037 237.766 246.739 261.46C229.214 277.876 209.053 292.382 185.851 298.437C144.117 309.323 96.3064 288.096 76.3535 249.826C67.0963 232.084 63.9143 209.476 74.4619 192.433L74.4509 192.429Z" fill="#DEDEDE"/>
<path d="M303.588 118.058C265.341 150.962 219.419 174.836 170.57 187.216C162.406 189.282 154.019 191.092 146.743 195.354C139.466 199.615 133.354 206.904 132.983 215.339C132.67 222.49 136.468 229.218 141.144 234.619C155.072 250.684 177.394 258.056 198.584 256.479C219.774 254.901 239.789 245.126 256.353 231.767C272.919 218.397 286.33 201.531 298.573 184.105C305.386 174.397 312 164.236 314.968 152.762C317.951 141.279 316.752 128.122 309.194 119.019C307.966 117.535 306.403 116.096 304.49 116.009C302.576 115.922 300.591 117.973 301.452 119.695" fill="#CB6E6E"/>
<path d="M726.353 216.466L323.683 97.6866C310.367 93.7585 296.378 101.401 292.438 114.757L209.096 397.294C205.156 410.65 212.758 424.661 226.074 428.589L628.744 547.368C642.061 551.296 656.049 543.653 659.989 530.297L743.331 247.761C747.271 234.405 739.67 220.394 726.353 216.466Z" fill="#40C0B1"/>
<path d="M220.433 358.861L671.326 491.865L657.839 537.586C655.09 546.906 645.304 552.252 636.011 549.511L218.807 426.445C209.514 423.704 204.197 413.902 206.946 404.582L220.433 358.861Z" fill="#247167"/>
<path d="M432.533 178.54L350.25 154.268C339.201 151.008 327.593 157.35 324.324 168.433L278.035 325.355C274.766 336.437 281.074 348.064 292.123 351.323L374.406 375.595C385.456 378.854 397.063 372.512 400.333 361.43L446.621 204.508C449.89 193.425 443.583 181.799 432.533 178.54Z" fill="#164741"/>
<path d="M245.812 511.914C257.399 515.332 270.179 506.622 274.357 492.46C278.535 478.297 272.528 464.046 260.94 460.627C249.352 457.209 236.572 465.919 232.395 480.082C228.217 494.244 234.224 508.496 245.812 511.914Z" fill="#FFF6ED"/>
<path d="M662.71 501.269C670.305 453.5 665.698 405.556 649.883 367.778L653.473 372.87C648.135 345.832 636.626 322.497 620.665 306.346C613.839 299.44 605.712 293.677 596.292 294.634C587.878 295.493 579.416 301.672 572.121 309.305C553.944 328.333 541.549 356.763 536.13 385.175C530.7 413.584 531.754 441.996 536.083 468.176C539.485 488.749 544.854 508.136 550.653 527.197C542.138 523.838 533.416 521.182 524.34 519.722C519.445 518.934 514.36 518.508 509.033 520.636C503.695 522.76 498.008 527.801 494.258 535.513C488.654 547.009 488.889 561.541 492.824 570.1C496.463 578.011 502.578 581.843 508.906 584.509C531.344 598.705 557.592 604.383 584.566 600.861C589.762 600.186 595.05 599.121 600.216 596.933C613.958 595.438 628.567 584.188 638.89 568.833C651.84 549.575 658.926 525.068 662.715 501.294L662.71 501.269Z" fill="#FFF6ED"/>
<path d="M494.311 585.346C514.174 591.205 535.039 579.805 540.916 559.883C546.792 539.961 535.454 519.062 515.592 513.203C495.729 507.343 474.863 518.744 468.987 538.666C463.11 558.587 474.448 579.487 494.311 585.346Z" fill="#FFF6ED"/>
<path d="M600.072 554.242C639.036 553.573 669.703 493.562 668.568 420.205C667.432 346.847 634.925 287.921 595.961 288.59C556.996 289.259 526.33 349.27 527.465 422.627C528.6 495.985 561.107 554.911 600.072 554.242Z" fill="#FFF6ED"/>
<path d="M536.44 328.707C536.712 314.635 529.804 301.309 520.978 290.377C512.151 279.444 501.347 270.291 491.899 259.891C461.404 226.303 446.641 181.652 432.674 138.417C428.483 125.439 424.293 112.461 420.102 99.4832C417.156 95.4759 414.21 91.4686 411.263 87.4612L389.171 76.5294C379.917 74.1817 369.846 77.6306 362.593 83.8678C355.351 90.1082 350.617 98.8185 347.333 107.813C337.832 133.852 339.506 162.459 341.317 190.116C343.582 224.708 345.875 259.524 354.265 293.154C360.074 316.454 369.135 339.579 385.335 357.257C414.48 389.051 466.157 397.171 503.686 375.856C521.091 365.979 536.033 348.717 536.424 328.678L536.44 328.707Z" fill="#FFF6ED"/>
</g>
<defs>
<clipPath id="clip0_56_206">
<rect width="755" height="458.259" fill="white" transform="translate(129.653) rotate(16.4349)"/>
</clipPath>
</defs>
</svg>
