<svg width="398" height="241" viewBox="0 0 398 241" fill="none" xmlns="http://www.w3.org/2000/svg">
<g clip-path="url(#clip0_56_259)">
<path d="M261.662 193.462V211.465C270.023 212.326 276.526 218.724 276.526 226.494V230.455C276.526 235.469 272.014 239.531 266.456 239.531H241.312V239.489C232.247 239.08 225.034 232.351 225.034 224.081V193.456H261.668L261.662 193.462Z" fill="#FFF6ED"/>
<path d="M34.053 135.355C15.2461 135.355 8.39233e-05 121.056 8.39233e-05 103.418C8.39233e-05 85.78 15.2461 71.4814 34.053 71.4814C52.8599 71.4814 68.106 85.78 68.106 103.418C68.106 121.056 52.8599 135.355 34.053 135.355Z" fill="#E6E6E6"/>
<path d="M397.211 105.278C395.25 98.14 389.77 92.446 383.677 88.2448C377.583 84.0435 370.756 81.034 364.427 77.1939C343.999 64.7888 329.875 44.4627 316.365 24.7325C312.31 18.8098 308.256 12.8871 304.202 6.96445C302.114 5.38146 300.027 3.79846 297.94 2.21547L285.145 0.000488281C280.116 0.193096 275.539 3.43131 272.802 7.65663C270.071 11.882 268.976 16.98 268.657 22.0059C267.737 36.5538 272.85 50.7345 277.891 64.4156C284.195 81.5276 290.547 98.7479 299.804 114.463C306.217 125.352 314.247 135.668 325.075 142.175C344.553 153.876 371.892 150.282 387.689 133.947C395.016 126.375 399.996 115.445 397.205 105.278H397.211Z" fill="#DEDEDE"/>
<path d="M292.449 33.6701C306.879 55.9584 326.538 74.8339 349.39 88.3465C353.21 90.6037 357.18 92.7645 360.224 95.9967C363.267 99.2289 365.27 103.815 364.2 108.125C363.291 111.778 360.368 114.607 357.198 116.636C347.76 122.667 335.374 123.064 324.895 119.116C314.417 115.167 305.754 107.258 299.372 98.0552C292.99 88.8461 288.725 78.343 285.134 67.7315C283.137 61.8209 281.308 55.7116 281.519 49.482C281.723 43.2463 284.292 36.788 289.471 33.321C290.313 32.7552 291.318 32.2617 292.298 32.5024C293.279 32.7432 293.976 34.0734 293.285 34.8137" fill="#CB6E6E"/>
<path d="M64.0154 20.4048H285.326C292.645 20.4048 298.578 26.3414 298.578 33.6646V188.581C298.578 195.904 292.645 201.841 285.326 201.841H64.0154C56.6966 201.841 50.7635 195.904 50.7635 188.581V33.6646C50.7635 26.3414 56.6966 20.4048 64.0154 20.4048Z" fill="#40C0B1"/>
<path d="M298.578 167.508H50.7635V192.577C50.7635 197.687 54.9141 201.841 60.0212 201.841H289.32C294.428 201.841 298.578 197.687 298.578 192.577V167.508Z" fill="#247167"/>
<path d="M218.231 44.9922H263.455C269.528 44.9922 274.451 49.9183 274.451 55.9949V142.036C274.451 148.113 269.528 153.039 263.455 153.039H218.231C212.158 153.039 207.235 148.113 207.235 142.036V55.9949C207.235 49.9183 212.158 44.9922 218.231 44.9922Z" fill="#164741"/>
<path d="M262.919 240.934C256.551 240.934 251.388 234.639 251.388 226.874C251.388 219.108 256.551 212.813 262.919 212.813C269.288 212.813 274.451 219.108 274.451 226.874C274.451 234.639 269.288 240.934 262.919 240.934Z" fill="#FFF6ED"/>
<path d="M53.7174 173.533C57.0018 148.308 66.482 124.81 80.1128 108.107L77.5382 110.141C84.2694 97.297 93.5692 87.2393 104.048 81.4671C108.529 78.9993 113.498 77.3019 118.118 79.1859C122.244 80.8712 125.601 85.247 128.151 90.1826C134.504 102.485 136.531 118.67 135.033 133.808C133.541 148.946 128.771 163.121 122.677 175.682C117.889 185.553 112.283 194.534 106.508 203.285C111.314 202.858 116.121 202.816 120.927 203.43C123.52 203.761 126.154 204.302 128.53 206.168C130.912 208.034 133.036 211.423 133.782 215.871C134.901 222.504 132.615 229.799 129.349 233.531C126.329 236.979 122.665 238.003 119.068 238.406C105.606 242.228 91.4879 241.187 78.3744 235.396C75.8479 234.283 73.3335 232.959 71.0477 231.087C64.3225 228.288 58.6139 220.439 55.6844 211.158C52.0091 199.517 52.0813 186.101 53.7114 173.545L53.7174 173.533Z" fill="#FFF6ED"/>
<path d="M126.323 241C115.406 241 106.556 232.145 106.556 221.222C106.556 210.298 115.406 201.443 126.323 201.443C137.24 201.443 146.089 210.298 146.089 221.222C146.089 232.145 137.24 241 126.323 241Z" fill="#FFF6ED"/>
<path d="M77.4874 209.574C57.8863 203.439 51.3311 168.606 62.846 131.772C74.3609 94.9381 99.5855 70.0518 119.187 76.1869C138.788 82.322 145.343 117.155 133.828 153.989C122.313 190.823 97.0886 215.709 77.4874 209.574Z" fill="#FFF6ED"/>
<path d="M143.298 105.278C145.259 98.1398 150.739 92.4458 156.833 88.2446C162.927 84.0433 169.754 81.0339 176.082 77.1937C196.51 64.7886 210.634 44.4625 224.145 24.7323C228.199 18.8096 232.254 12.887 236.308 6.96428C238.395 5.38129 240.483 3.7983 242.57 2.2153L255.371 -0.0117188C260.399 0.180889 264.977 3.4191 267.714 7.64442C270.445 11.8697 271.54 16.9678 271.859 21.9937C272.779 36.5415 267.666 50.7223 262.625 64.4034C256.321 81.5154 249.969 98.7357 240.711 114.451C234.299 125.34 226.268 135.656 215.441 142.163C195.963 153.864 168.623 150.27 152.827 133.935C145.5 126.363 140.519 115.432 143.31 105.266L143.298 105.278Z" fill="#FFF6ED"/>
</g>
<defs>
<clipPath id="clip0_56_259">
<rect width="398" height="241" fill="white" transform="matrix(-1 0 0 1 398 0)"/>
</clipPath>
</defs>
</svg>
