<svg width="1013" height="575" viewBox="0 0 1013 575" fill="none" xmlns="http://www.w3.org/2000/svg">
<path d="M814.857 376.454L912.129 340.02L927.321 380.581C930.049 387.864 931.303 394.344 931.083 400.023C930.875 405.734 929.381 410.518 926.602 414.375C923.834 418.264 920.012 421.122 915.136 422.948C911.431 424.336 907.832 424.8 904.338 424.339C900.875 423.867 897.684 422.625 894.764 420.614C891.844 418.602 889.334 415.95 887.234 412.656L886.284 413.012C887.565 417.01 887.862 421.032 887.176 425.081C886.502 429.16 884.818 432.86 882.126 436.179C879.465 439.487 875.792 442.018 871.106 443.773C865.881 445.73 860.712 446.15 855.6 445.032C850.519 443.902 845.848 441.264 841.588 437.119C837.359 432.962 833.898 427.29 831.206 420.102L814.857 376.454ZM842.614 392.866L848.058 407.4C849.967 412.498 852.338 415.888 855.171 417.571C858.016 419.286 861.164 419.497 864.615 418.204C867.117 417.267 869.051 415.875 870.417 414.027C871.814 412.168 872.601 409.977 872.776 407.457C872.982 404.924 872.522 402.154 871.396 399.146L865.792 384.184L842.614 392.866ZM880.943 378.509L885.818 391.523C886.778 394.088 888.06 396.208 889.662 397.882C891.264 399.557 893.08 400.646 895.11 401.149C897.152 401.684 899.312 401.525 901.592 400.671C904.854 399.449 906.986 397.333 907.988 394.322C908.99 391.31 908.756 387.842 907.286 383.915L902.269 370.522L880.943 378.509Z" fill="#E66F51"/>
<path d="M166.857 449.48C166.857 469.409 166.699 486.392 152.548 503.024C141.708 515.764 127.656 527.285 112.945 535.911C101.432 542.662 88.9924 543.548 75.8001 544.608C63.7632 545.576 50.9235 547.05 38.9439 544.744C29.1138 542.853 22.8627 538.499 14.6621 533.873" stroke="#2B9D8E" stroke-width="20.1339" stroke-linecap="square"/>
<path d="M383.22 13.4152C379.161 40.4556 378.485 96.5635 408.253 104.672C438.021 112.781 465.791 94.5078 475.955 84.3575C484.792 76.7242 494.454 59.2617 462.416 50.477C430.377 41.6924 432.081 72.3108 436.938 88.718C442.479 100.696 458.562 130.025 478.573 151.522C498.584 173.018 519.083 158.536 526.832 148.608" stroke="#164741" stroke-width="16.1071"/>
</svg>
