<svg width="1094" height="315" viewBox="0 0 1094 315" fill="none" xmlns="http://www.w3.org/2000/svg">
<path d="M273.213 29.5453C274.955 28.5025 277.128 29.9426 276.847 31.9531L274.884 45.9814C274.692 47.3504 275.686 48.6008 277.063 48.7228L291.031 49.9613C293.044 50.1398 293.961 52.5637 292.571 54.0302L282.723 64.418C281.783 65.4093 281.851 66.9821 282.874 67.8882L293.413 77.2302C294.914 78.5607 294.233 81.035 292.263 81.4114L278.253 84.0881C276.921 84.3426 276.059 85.6431 276.344 86.9688L279.341 100.914C279.762 102.875 277.749 104.466 275.938 103.603L263.227 97.539C261.994 96.9508 260.519 97.501 259.973 98.753L254.246 111.871C253.437 113.723 250.847 113.824 249.898 112.039L243.313 99.6591C242.664 98.4387 241.125 98.0108 239.939 98.7209L227.785 105.997C226.044 107.04 223.87 105.6 224.152 103.59L226.115 89.5613C226.306 88.1923 225.312 86.9419 223.935 86.8198L209.967 85.5813C207.954 85.4028 207.037 82.979 208.428 81.5124L218.276 71.1247C219.215 70.1333 219.147 68.5606 218.125 67.6544L207.586 58.3124C206.085 56.982 206.765 54.5077 208.735 54.1313L222.746 51.4545C224.077 51.2001 224.939 49.8996 224.654 48.5738L221.658 34.6283C221.236 32.6673 223.25 31.0765 225.06 31.94L237.771 38.0037C239.004 38.5918 240.479 38.0416 241.026 36.7897L246.753 23.6713C247.561 21.8192 250.151 21.7191 251.1 23.5033L257.686 35.8835C258.335 37.104 259.874 37.5319 261.06 36.8218L273.213 29.5453Z" fill="white"/>
<path d="M143.886 280.211C139.117 264.227 133.053 251.801 119.497 241.433C103.613 229.284 77.9031 219.594 57.6955 223.232C40.7431 226.284 29.8224 243.132 29.1026 259.843C28.4222 275.638 46.6987 280.396 59.1356 280.705C73.4419 281.06 94.5119 280.208 100.522 264.594C109.121 242.255 108.255 211.282 103.22 188.339C98.3463 166.133 84.8552 148.552 61.1159 144.386C48.6781 142.204 34.73 147.99 22.8339 151.201" stroke="#E66F51" stroke-width="20.1339" stroke-linecap="square"/>
<path d="M890.682 256.993C911.785 274.38 959.558 303.812 981.821 282.452C1004.08 261.092 1002.69 227.878 999.214 213.941C997.211 202.437 987.203 185.17 963.194 208.13C939.184 231.091 966.32 245.374 982.889 249.646C996.011 251.054 1029.44 252.343 1058.16 246.235C1086.89 240.127 1085.01 215.099 1080.48 203.348" stroke="#164741" stroke-width="16.1071"/>
</svg>
