<svg width="743" height="311" viewBox="0 0 743 311" fill="none" xmlns="http://www.w3.org/2000/svg">
<path d="M590.186 172.844L586.745 183.331L563.162 175.595L549.077 218.535L536.163 214.299L553.689 160.872L590.186 172.844ZM583.878 229.951L569.999 225.398L605.551 177.884L622.743 183.523L623.244 242.864L609.365 238.311L609.927 194.229L609.51 194.092L583.878 229.951ZM588.923 208.317L617.932 217.832L614.715 227.641L585.705 218.125L588.923 208.317ZM628.996 244.751L646.522 191.323L668.801 198.631C672.801 199.943 675.963 201.607 678.288 203.621C680.63 205.642 682.146 207.892 682.835 210.372C683.542 212.857 683.456 215.439 682.577 218.118C681.91 220.152 680.887 221.83 679.51 223.151C678.139 224.454 676.534 225.382 674.696 225.935C672.858 226.487 670.888 226.65 668.786 226.423L668.615 226.945C670.737 227.757 672.538 228.992 674.016 230.652C675.511 232.318 676.505 234.281 676.996 236.542C677.493 238.785 677.319 241.194 676.475 243.768C675.533 246.638 673.962 248.963 671.759 250.745C669.562 252.509 666.867 253.59 663.674 253.988C660.487 254.367 656.919 253.91 652.971 252.615L628.996 244.751ZM645.324 238.578L653.307 241.196C656.107 242.115 658.342 242.26 660.012 241.633C661.699 241.011 662.853 239.753 663.475 237.857C663.926 236.483 663.992 235.195 663.674 233.992C663.361 232.773 662.702 231.699 661.696 230.772C660.696 229.828 659.37 229.084 657.718 228.542L649.5 225.847L645.324 238.578ZM652.23 217.525L659.378 219.87C660.787 220.332 662.116 220.508 663.366 220.397C664.615 220.287 665.69 219.889 666.59 219.201C667.507 218.52 668.171 217.553 668.581 216.301C669.169 214.509 668.996 212.892 668.063 211.45C667.13 210.007 665.585 208.932 663.429 208.225L656.072 205.812L652.23 217.525ZM710.306 212.246L696.946 248.923L686.224 245.406L697.184 207.942L710.306 212.246ZM685.958 264.273C684.097 263.663 682.714 262.477 681.809 260.716C680.92 258.961 680.784 257.144 681.401 255.266C682.005 253.422 683.182 252.065 684.932 251.194C686.705 250.312 688.522 250.176 690.383 250.786C692.174 251.374 693.531 252.551 694.454 254.318C695.4 256.073 695.571 257.872 694.966 259.716C694.555 260.968 693.86 262.001 692.88 262.816C691.917 263.637 690.823 264.184 689.597 264.456C688.389 264.734 687.176 264.673 685.958 264.273Z" fill="#2B9D8E"/>
<path d="M290.588 30.0033C292.33 28.9605 294.503 30.4006 294.222 32.4111L292.259 46.4394C292.067 47.8084 293.061 49.0588 294.438 49.1809L308.406 50.4193C310.419 50.5978 311.336 53.0217 309.946 54.4882L300.098 64.876C299.158 65.8673 299.226 67.4401 300.249 68.3462L310.788 77.6882C312.289 79.0187 311.608 81.493 309.638 81.8694L295.628 84.5461C294.296 84.8006 293.434 86.1011 293.719 87.4268L296.716 101.372C297.137 103.333 295.124 104.924 293.313 104.061L280.602 97.997C279.369 97.4089 277.894 97.9591 277.348 99.211L271.621 112.329C270.812 114.181 268.222 114.282 267.273 112.497L260.688 100.117C260.039 98.8967 258.5 98.4688 257.314 99.1789L245.16 106.455C243.419 107.498 241.245 106.058 241.527 104.048L243.49 90.0193C243.681 88.6503 242.687 87.3999 241.31 87.2778L227.342 86.0393C225.329 85.8608 224.412 83.437 225.803 81.9704L235.651 71.5827C236.59 70.5913 236.522 69.0186 235.5 68.1124L224.961 58.7705C223.46 57.44 224.14 54.9657 226.11 54.5893L240.121 51.9125C241.452 51.6581 242.314 50.3576 242.029 49.0318L239.033 35.0863C238.611 33.1253 240.625 31.5345 242.435 32.3981L255.146 38.4617C256.379 39.0498 257.854 38.4996 258.401 37.2477L264.128 24.1293C264.936 22.2772 267.526 22.1771 268.475 23.9613L275.061 36.3415C275.71 37.562 277.249 37.9899 278.435 37.2798L290.588 30.0033Z" fill="white"/>
<path d="M25.6298 170.039L58.3452 177.877L62.7072 210.745L32.6878 223.22L9.77267 198.063L25.6298 170.039Z" fill="#E66F51"/>
</svg>
