<svg width="1042" height="529" viewBox="0 0 1042 529" fill="none" xmlns="http://www.w3.org/2000/svg">
<path d="M152.005 490.925L77.8861 418.154L127.596 367.524L142.145 381.808L110.024 414.524L121.605 425.895L131.198 416.123C137.121 410.091 143.25 405.803 149.587 403.258C155.947 400.689 162.097 399.928 168.036 400.973C173.999 401.994 179.381 404.862 184.182 409.576C188.984 414.29 191.998 419.666 193.225 425.704C194.475 431.718 193.923 437.975 191.568 444.476C189.236 450.953 185.109 457.208 179.187 463.24L152.005 490.925ZM155.407 459.082L165.001 449.311C167.559 446.705 169.268 444.071 170.128 441.409C170.988 438.7 171.096 436.128 170.452 433.695C169.808 431.215 168.533 429.039 166.627 427.167C163.876 424.467 160.565 423.254 156.694 423.528C152.799 423.779 148.933 425.859 145.096 429.768L135.502 439.539L155.407 459.082Z" fill="#164741"/>
<path d="M26.0449 43.2899L58.7602 51.1277L63.1222 83.9956L33.1028 96.4712L10.1877 71.3137L26.0449 43.2899Z" fill="#E66F51"/>
<path d="M967.925 48.431C972.542 45.7381 978.241 49.5144 977.561 54.816L974.75 76.7355C974.371 79.6914 976.068 82.5216 978.855 83.5789L1000.06 91.6264C1005.17 93.5639 1005.7 100.577 1000.94 103.261L982.544 113.645C979.821 115.181 978.594 118.449 979.633 121.397L986.764 141.629C988.6 146.839 983.459 151.792 978.321 149.764L957.726 141.632C954.879 140.508 951.635 141.541 949.963 144.104L938.265 162.04C935.325 166.548 928.481 165.678 926.763 160.578L919.524 139.099C918.583 136.309 915.87 134.511 912.933 134.732L890.331 136.439C884.965 136.844 881.497 130.881 884.501 126.417L896.458 108.652C898.167 106.113 897.854 102.723 895.709 100.54L880.192 84.7436C876.321 80.8033 878.879 74.138 884.392 73.7979L905.803 72.4773C908.923 72.2849 911.454 69.8809 911.808 66.7752L914.197 45.7829C914.814 40.3565 921.48 38.1114 925.255 42.0584L940.933 58.4522C942.993 60.6059 946.261 61.066 948.835 59.5645L967.925 48.431Z" fill="white"/>
</svg>
