<svg width="822" height="345" viewBox="0 0 822 345" fill="none" xmlns="http://www.w3.org/2000/svg">
<path d="M602.442 201.413L580.079 186.317L667.244 119.835L694.945 138.536L665.875 244.235L643.512 229.138L666.767 151.089L666.094 150.635L602.442 201.413ZM622.33 165.517L669.075 197.073L658.405 212.879L611.66 181.323L622.33 165.517Z" fill="#264653"/>
<path d="M288.595 59.6716L292.955 79.5886L248.167 89.3947L266.022 170.945L241.497 176.315L219.282 74.8473L288.595 59.6716Z" fill="#E66F51"/>
<path d="M47.1293 241.234L51.2031 251.491L28.1359 260.652L44.8159 302.653L32.1851 307.669L11.4314 255.411L47.1293 241.234ZM78.8552 289.134L65.2803 294.525L62.1587 235.265L78.9742 228.587L117.36 273.843L103.785 279.234L75.9868 245.016L75.5785 245.179L78.8552 289.134ZM68.8758 269.287L97.2504 258.019L101.061 267.613L72.6861 278.882L68.8758 269.287ZM122.986 271.608L102.233 219.35L124.024 210.696C127.937 209.142 131.431 208.394 134.507 208.453C137.599 208.505 140.205 209.262 142.322 210.726C144.456 212.182 146.043 214.221 147.084 216.84C147.874 218.831 148.164 220.774 147.951 222.67C147.733 224.549 147.095 226.289 146.037 227.891C144.979 229.493 143.57 230.879 141.81 232.051L142.013 232.561C144.163 231.826 146.337 231.622 148.535 231.95C150.751 232.272 152.771 233.144 154.596 234.565C156.414 235.97 157.823 237.931 158.823 240.449C159.938 243.256 160.22 246.049 159.669 248.828C159.112 251.59 157.734 254.146 155.536 256.496C153.331 258.829 150.298 260.762 146.436 262.295L122.986 271.608ZM131.574 256.411L139.382 253.31C142.121 252.222 143.931 250.903 144.811 249.352C145.709 247.794 145.79 246.088 145.053 244.234C144.52 242.89 143.746 241.858 142.731 241.138C141.71 240.402 140.516 239.999 139.15 239.931C137.777 239.846 136.282 240.125 134.666 240.767L126.629 243.959L131.574 256.411ZM123.396 235.819L130.388 233.042C131.765 232.495 132.899 231.779 133.788 230.894C134.678 230.009 135.248 229.015 135.499 227.911C135.766 226.8 135.657 225.632 135.171 224.407C134.475 222.655 133.307 221.524 131.666 221.013C130.026 220.503 128.151 220.667 126.042 221.504L118.846 224.362L123.396 235.819ZM164.621 194.573L177.847 231.299L167.36 235.464L151.786 199.671L164.621 194.573ZM179.238 250.125C177.418 250.848 175.596 250.823 173.773 250.051C171.967 249.271 170.699 247.963 169.969 246.126C169.253 244.322 169.288 242.526 170.074 240.737C170.871 238.924 172.179 237.656 173.999 236.933C175.751 236.237 177.548 236.272 179.388 237.038C181.239 237.78 182.522 239.053 183.238 240.856C183.724 242.081 183.852 243.32 183.621 244.574C183.408 245.821 182.917 246.941 182.15 247.935C181.4 248.922 180.429 249.652 179.238 250.125Z" fill="#2B9D8E"/>
</svg>
