<svg width="1169" height="554" viewBox="0 0 1169 554" fill="none" xmlns="http://www.w3.org/2000/svg">
<path d="M129.177 384.514C131.66 381.947 135.854 384.726 134.458 388.013L122.168 416.954C121.322 418.947 122.643 421.19 124.795 421.417L156.796 424.796C160.379 425.174 160.734 430.253 157.238 431.125L126.993 438.671C124.817 439.214 123.848 441.76 125.113 443.613L142.912 469.688C144.952 472.677 141.272 476.241 138.35 474.105L112.502 455.213C110.719 453.909 108.183 454.746 107.526 456.854L98.2642 486.554C97.198 489.973 92.1855 489.361 91.973 485.786L90.0787 453.918C89.9515 451.777 87.8067 450.356 85.7855 451.073L55.7001 461.752C52.3253 462.95 49.8079 458.572 52.5406 456.258L76.2802 436.151C77.9655 434.724 77.7474 432.062 75.8523 430.928L48.3784 414.49C45.2723 412.632 47.1193 407.854 50.6677 408.567L81.6183 414.794C83.8175 415.236 85.7843 413.352 85.436 411.136L80.5955 380.342C80.0361 376.783 84.8511 375.129 86.5962 378.281L102.182 406.434C103.231 408.327 105.811 408.669 107.316 407.113L129.177 384.514Z" fill="white"/>
<path d="M1088.77 411.686C1092.49 407.836 1098.78 412.004 1096.69 416.935L1088.64 435.89C1087.37 438.878 1089.35 442.243 1092.58 442.584L1113.35 444.777C1118.73 445.344 1119.26 452.962 1114.01 454.271L1094.86 459.05C1091.59 459.864 1090.14 463.683 1092.04 466.462L1103.25 482.892C1106.31 487.376 1100.79 492.721 1096.41 489.517L1079.94 477.48C1077.27 475.525 1073.46 476.78 1072.48 479.942L1066.51 499.082C1064.91 504.21 1057.39 503.292 1057.07 497.93L1055.83 476.996C1055.64 473.784 1052.42 471.652 1049.39 472.729L1029.62 479.743C1024.56 481.54 1020.79 474.974 1024.88 471.502L1040.18 458.545C1042.71 456.404 1042.38 452.412 1039.54 450.711L1022.04 440.237C1017.38 437.449 1020.15 430.282 1025.47 431.353L1044.97 435.276C1048.27 435.94 1051.22 433.113 1050.7 429.789L1047.63 410.287C1046.79 404.948 1054.02 402.468 1056.63 407.196L1066.75 425.469C1068.32 428.309 1072.19 428.821 1074.45 426.488L1088.77 411.686Z" fill="white"/>
<path d="M886.462 11.2889L919.177 19.1267L923.539 51.9946L893.52 64.4703L870.605 39.3128L886.462 11.2889Z" fill="#E66F51"/>
</svg>
