<svg width="861" height="583" viewBox="0 0 861 583" fill="none" xmlns="http://www.w3.org/2000/svg">
<g clip-path="url(#clip0_56_236)">
<path d="M280.543 287.009C206.697 272.119 147.706 211.11 142.11 143.832C132.496 165.13 130.849 189.213 137.481 211.388C99.6632 188.628 78.3047 147.05 79.8384 106.405C81.3721 65.76 104.449 26.8422 138.73 0.000976562C72.3118 12.9828 10.7641 58.9626 1.27777 118.955C-8.20859 178.878 36.1984 237.909 94.9484 268.247C89.9638 269.333 84.397 268.038 80.6479 264.917C99.578 289.739 131.701 304.977 164.861 310.229C198.02 315.48 232.259 311.58 264.907 304.225C270.9 302.874 277.362 301.091 280.813 296.536C284.264 291.968 281.949 284.014 275.786 283.68" fill="#C17A38"/>
<path d="M331.724 417.162L265.532 417.162C255.918 417.162 248.122 424.809 248.122 434.239L248.122 555.046C248.122 570.465 260.889 583.001 276.624 583.001H331.738C341.352 583.001 349.149 575.354 349.149 565.924L349.149 434.253C349.149 424.823 341.352 417.176 331.738 417.176L331.724 417.162Z" fill="#C17A38"/>
<path d="M340.628 500.082L266.754 500.082C264.808 500.082 263.218 501.642 263.218 503.55V549.976C263.218 568.195 278.299 583.002 296.889 583.002H348.055C369.343 583.002 386.611 566.05 386.611 545.184C386.611 520.293 366.005 500.082 340.628 500.082Z" fill="#C17A38"/>
<path d="M683.359 417.162L617.168 417.162C607.554 417.162 599.757 424.809 599.757 434.239V555.046C599.757 570.465 612.524 583.001 628.259 583.001H683.374C692.988 583.001 700.784 575.354 700.784 565.924L700.784 434.253C700.784 424.823 692.988 417.176 683.374 417.176L683.359 417.162Z" fill="#C17A38"/>
<path d="M692.264 500.082L618.389 500.082C616.444 500.082 614.853 501.642 614.853 503.55V549.976C614.853 568.195 629.935 583.002 648.524 583.002H699.691C720.978 583.002 738.247 566.05 738.247 545.184C738.247 520.293 717.641 500.082 692.264 500.082Z" fill="#C17A38"/>
<path d="M741.271 33.4161C763.894 38.8067 786.53 44.2111 809.153 49.6017C818.284 51.7746 827.572 54.0172 835.638 58.7531C857.337 71.4981 864.977 100.248 859.084 124.373C853.191 148.498 836.476 168.667 818.483 186.106C798.104 205.858 775.425 223.297 751.255 238.368C723.818 255.473 690.928 269.959 659.587 261.435C648.382 258.384 637.802 252.255 630.915 243.062C619.894 228.339 619.809 208.504 621.542 190.327C624.396 160.282 630.957 130.585 641.04 102.086C645.371 89.8288 650.512 77.5433 659.146 67.6955C668.391 57.1651 681.073 50.117 694.024 44.4897C709.66 37.6923 726.46 32.6222 743.558 33.054" fill="#AB5D15"/>
<path d="M223.015 60.0205L732.538 60.0205C746.2 60.0205 757.276 70.884 757.276 84.2849L757.276 413.4C757.276 426.801 746.2 437.665 732.538 437.665L223.015 437.665C209.353 437.665 198.277 426.801 198.277 413.4L198.277 84.2849C198.277 70.884 209.353 60.0205 223.015 60.0205Z" fill="#92CEC6"/>
<path d="M757.276 395.613L198.263 395.613V439.155C198.263 448.906 206.343 456.831 216.284 456.831L739.24 456.831C749.181 456.831 757.262 448.906 757.262 439.155V395.613H757.276Z" fill="#496360"/>
<path d="M608.348 109.942L653.863 109.942C674.082 109.942 690.473 126.019 690.473 145.851L690.473 318.599C690.473 338.432 674.082 354.509 653.863 354.509H608.348C588.129 354.509 571.738 338.432 571.738 318.599L571.738 145.851C571.738 126.019 588.129 109.942 608.348 109.942Z" fill="#496360"/>
<path d="M289.86 117.882C289.86 113.497 293.484 109.942 297.955 109.942C302.425 109.942 306.049 113.497 306.049 117.882L306.049 346.569C306.049 350.954 302.425 354.509 297.955 354.509C293.484 354.509 289.86 350.954 289.86 346.569L289.86 117.882Z" fill="#496360"/>
<path d="M261.003 191.232C261.003 186.847 264.627 183.292 269.097 183.292C273.568 183.292 277.192 186.847 277.192 191.232L277.192 346.568C277.192 350.953 273.568 354.508 269.097 354.508C264.627 354.508 261.003 350.953 261.003 346.568L261.003 191.232Z" fill="#496360"/>
<path d="M603.436 8.12044C626.726 7.93936 650.015 7.74435 673.291 7.56327C682.692 7.49363 692.25 7.43791 701.253 10.0984C725.48 17.2579 740.051 43.3052 740.335 68.1268C740.619 92.9483 729.442 116.488 716.335 137.716C701.48 161.744 683.842 184.1 664.146 204.506C641.793 227.67 613.504 249.594 580.998 248.828C569.367 248.564 557.58 245.137 548.619 237.866C534.276 226.235 529.249 207.013 526.395 188.975C521.68 159.167 520.643 128.788 523.327 98.7428C524.477 85.8166 526.395 72.6676 532.331 61.0647C538.679 48.64 549.216 38.7643 560.364 30.2119C573.841 19.8765 588.865 10.9341 605.552 7.25684" fill="#C17A38"/>
</g>
<defs>
<clipPath id="clip0_56_236">
<rect width="861" height="583" fill="white" transform="matrix(-1 0 0 1 861 0)"/>
</clipPath>
</defs>
</svg>
