<svg width="390" height="265" viewBox="0 0 390 265" fill="none" xmlns="http://www.w3.org/2000/svg">
<g clip-path="url(#clip0_56_274)">
<path d="M262.91 130.029C296.357 123.283 323.077 95.6427 325.611 65.1627C329.966 74.8116 330.712 85.7225 327.708 95.7689C344.837 85.4575 354.511 66.6205 353.816 48.2063C353.122 29.7921 342.669 12.1604 327.142 0C357.225 5.88143 385.102 26.7126 389.399 53.8921C393.696 81.0401 373.582 107.784 346.972 121.529C349.23 122.021 351.751 121.434 353.45 120.02C344.875 131.266 330.326 138.169 315.307 140.549C300.288 142.928 284.78 141.161 269.992 137.829C267.278 137.217 264.351 136.409 262.788 134.345C261.225 132.275 262.273 128.672 265.065 128.521" fill="#7A4514"/>
<path d="M239.728 188.995L269.709 188.995C274.063 188.995 277.595 192.46 277.595 196.732V251.463C277.595 258.449 271.812 264.129 264.685 264.129H239.722C235.367 264.129 231.836 260.664 231.836 256.392L231.836 196.738C231.836 192.466 235.367 189.001 239.722 189.001L239.728 188.995Z" fill="#7A4514"/>
<path d="M235.695 226.562L269.155 226.562C270.037 226.562 270.757 227.268 270.757 228.133V249.166C270.757 257.42 263.926 264.128 255.506 264.128H232.331C222.689 264.128 214.868 256.448 214.868 246.995C214.868 235.718 224.201 226.562 235.695 226.562Z" fill="#7A4514"/>
<path d="M80.4602 188.995L110.441 188.995C114.795 188.995 118.326 192.46 118.326 196.732L118.326 251.463C118.326 258.449 112.544 264.129 105.417 264.129H80.4537C76.0991 264.129 72.5679 260.664 72.5679 256.392L72.5679 196.738C72.5679 192.466 76.0991 189.001 80.4537 189.001L80.4602 188.995Z" fill="#7A4514"/>
<path d="M76.427 226.562L109.887 226.562C110.768 226.562 111.489 227.268 111.489 228.133V249.166C111.489 257.42 104.658 264.128 96.2382 264.128H73.063C63.4211 264.128 55.5996 256.448 55.5996 246.995C55.5996 235.718 64.9327 226.562 76.427 226.562Z" fill="#7A4514"/>
<path d="M54.2298 15.1396C43.9834 17.5817 33.7304 20.0302 23.484 22.4724C19.3481 23.4569 15.1414 24.4729 11.4879 26.6185C1.65956 32.3926 -1.80096 45.4176 0.868395 56.3474C3.53775 67.2773 11.1084 76.415 19.258 84.3158C28.4882 93.2642 38.7604 101.165 49.708 107.993C62.135 115.742 77.032 122.305 91.2278 118.443C96.3028 117.061 101.095 114.285 104.214 110.12C109.206 103.449 109.244 94.4632 108.46 86.2279C107.167 72.616 104.195 59.1619 99.6282 46.2506C97.6664 40.6973 95.338 35.1314 91.4272 30.6698C87.2398 25.899 81.4959 22.7059 75.6297 20.1564C68.5479 17.0769 60.9386 14.7799 53.1943 14.9755" fill="#5C320A"/>
<path d="M288.966 27.1924L58.1858 27.1924C51.9975 27.1924 46.981 32.1141 46.981 38.1854L46.981 187.291C46.981 193.362 51.9975 198.284 58.1858 198.284L288.966 198.284C295.155 198.284 300.171 193.362 300.171 187.291L300.171 38.1854C300.171 32.1141 295.155 27.1924 288.966 27.1924Z" fill="#D1562F"/>
<path d="M46.981 179.232L300.178 179.232V198.959C300.178 203.377 296.518 206.967 292.015 206.967L55.1498 206.967C50.6473 206.967 46.9874 203.377 46.9874 198.959L46.9874 179.232H46.981Z" fill="#9F3919"/>
<path d="M114.435 49.8096L93.82 49.8096C84.6619 49.8096 77.2378 57.0933 77.2378 66.0782L77.2378 144.342C77.2378 153.326 84.6619 160.61 93.82 160.61H114.435C123.593 160.61 131.017 153.326 131.017 144.342L131.017 66.0782C131.017 57.0933 123.593 49.8096 114.435 49.8096Z" fill="#9F3919"/>
<path d="M258.69 53.4066C258.69 51.42 257.048 49.8096 255.023 49.8096C252.998 49.8096 251.357 51.42 251.357 53.4066L251.357 157.013C251.357 159 252.998 160.61 255.023 160.61C257.048 160.61 258.69 159 258.69 157.013L258.69 53.4066Z" fill="#9F3919"/>
<path d="M271.76 86.638C271.76 84.6515 270.119 83.041 268.094 83.041C266.069 83.041 264.428 84.6515 264.428 86.638L264.428 157.013C264.428 159 266.069 160.61 268.094 160.61C270.119 160.61 271.76 159 271.76 157.013L271.76 86.638Z" fill="#9F3919"/>
<path d="M116.661 3.67934C106.112 3.5973 95.563 3.50896 85.0206 3.42692C80.7625 3.39537 76.4336 3.37012 72.3556 4.57544C61.3823 7.81906 54.7829 19.6198 54.6543 30.8652C54.5256 42.1106 59.5877 52.7754 65.5247 62.3927C72.2527 73.2784 80.2415 83.4068 89.1629 92.6518C99.2872 103.146 112.1 113.079 126.823 112.732C132.091 112.612 137.43 111.06 141.489 107.766C147.985 102.496 150.262 93.7877 151.555 85.6155C153.691 72.1109 154.16 58.3476 152.945 44.7358C152.424 38.8796 151.555 32.9224 148.867 27.6657C145.991 22.0367 141.219 17.5625 136.169 13.6879C130.065 9.00544 123.26 4.95407 115.702 3.28809" fill="#7A4514"/>
</g>
<defs>
<clipPath id="clip0_56_274">
<rect width="389.977" height="264.128" fill="white" transform="translate(0.000488281)"/>
</clipPath>
</defs>
</svg>
