<svg width="624" height="424" viewBox="0 0 624 424" fill="none" xmlns="http://www.w3.org/2000/svg">
<g clip-path="url(#clip0_56_140)">
<path d="M203.32 208.474C149.801 197.658 107.048 153.343 102.993 104.475C96.0249 119.944 94.831 137.438 99.6375 153.545C72.2296 137.013 56.7502 106.812 57.8618 77.2885C58.9733 47.7653 75.698 19.4967 100.543 0C52.407 9.42963 7.80098 42.8279 0.925858 86.4045C-5.94928 129.931 26.2342 172.809 68.8126 194.845C65.2001 195.634 61.1656 194.693 58.4485 192.427C72.1678 210.457 95.4486 221.525 119.481 225.34C143.513 229.154 168.327 226.321 191.989 220.979C196.332 219.998 201.015 218.703 203.516 215.394C206.017 212.076 204.339 206.298 199.872 206.056" fill="#7A4514"/>
<path d="M240.414 303.013H192.442C185.474 303.013 179.824 308.567 179.824 315.417L179.824 403.167C179.824 414.367 189.077 423.473 200.48 423.473H240.424C247.392 423.473 253.042 417.919 253.042 411.069L253.042 315.427C253.042 308.577 247.392 303.023 240.424 303.023L240.414 303.013Z" fill="#7A4514"/>
<path d="M246.867 363.243L193.327 363.243C191.917 363.243 190.764 364.376 190.764 365.762V399.485C190.764 412.718 201.694 423.473 215.167 423.473H252.249C267.677 423.473 280.192 411.16 280.192 396.004C280.192 377.924 265.259 363.243 246.867 363.243Z" fill="#7A4514"/>
<path d="M495.257 303.013H447.285C440.318 303.013 434.667 308.567 434.667 315.417L434.667 403.167C434.667 414.367 443.92 423.473 455.323 423.473H495.267C502.235 423.473 507.885 417.919 507.885 411.069L507.885 315.427C507.885 308.577 502.235 303.023 495.267 303.023L495.257 303.013Z" fill="#7A4514"/>
<path d="M501.71 363.243L448.17 363.243C446.76 363.243 445.608 364.376 445.608 365.762V399.485C445.608 412.718 456.538 423.473 470.01 423.473H507.093C522.52 423.473 535.036 411.16 535.036 396.004C535.036 377.924 520.102 363.243 501.71 363.243Z" fill="#7A4514"/>
<path d="M537.228 24.2729C553.623 28.1884 570.029 32.1141 586.424 36.0296C593.042 37.6079 599.773 39.2369 605.619 42.6769C621.345 51.9345 626.883 72.8173 622.611 90.341C618.34 107.865 606.226 122.515 593.186 135.182C578.417 149.529 561.981 162.196 544.463 173.144C524.579 185.568 500.743 196.09 478.028 189.898C469.907 187.683 462.24 183.231 457.248 176.553C449.261 165.859 449.2 151.451 450.455 138.248C452.524 116.424 457.279 94.8534 464.586 74.1528C467.725 65.2493 471.451 56.3255 477.709 49.1724C484.409 41.5234 493.6 36.4039 502.986 32.3164C514.318 27.379 526.493 23.6962 538.885 24.0098" fill="#5C320A"/>
<path d="M161.628 43.5967L530.898 43.5967C540.8 43.5967 548.827 51.4876 548.827 61.2216L548.827 300.281C548.827 310.015 540.8 317.906 530.898 317.906L161.628 317.906C151.726 317.906 143.699 310.015 143.699 300.281L143.699 61.2216C143.699 51.4876 151.726 43.5967 161.628 43.5967Z" fill="#D1562F"/>
<path d="M548.827 287.36L143.689 287.36V318.988C143.689 326.07 149.545 331.827 156.749 331.827L535.756 331.827C542.961 331.827 548.817 326.07 548.817 318.988V287.36H548.827Z" fill="#9F3919"/>
<path d="M440.893 79.8584L473.88 79.8584C488.533 79.8584 500.413 91.5363 500.413 105.942L500.413 231.42C500.413 245.826 488.533 257.504 473.88 257.504H440.893C426.24 257.504 414.36 245.826 414.36 231.42L414.36 105.942C414.36 91.5363 426.24 79.8584 440.893 79.8584Z" fill="#9F3919"/>
<path d="M210.073 85.6254C210.073 82.4404 212.699 79.8584 215.939 79.8584C219.179 79.8584 221.806 82.4404 221.806 85.6254L221.806 251.737C221.806 254.922 219.179 257.504 215.939 257.504C212.699 257.504 210.073 254.922 210.073 251.737L210.073 85.6254Z" fill="#9F3919"/>
<path d="M189.159 138.905C189.159 135.72 191.785 133.138 195.025 133.138C198.265 133.138 200.892 135.72 200.892 138.905L200.892 251.736C200.892 254.922 198.265 257.504 195.025 257.504C191.785 257.504 189.159 254.922 189.159 251.736L189.159 138.905Z" fill="#9F3919"/>
<path d="M437.333 5.8978C454.212 5.76627 471.091 5.62462 487.959 5.4931C494.773 5.44251 501.699 5.40204 508.225 7.3345C525.783 12.535 536.343 31.4549 536.548 49.4845C536.754 67.5141 528.654 84.6129 519.155 100.032C508.389 117.485 495.606 133.724 481.331 148.546C465.131 165.372 444.63 181.297 421.071 180.74C412.642 180.548 404.099 178.059 397.605 172.778C387.21 164.33 383.567 150.367 381.498 137.265C378.081 115.613 377.33 93.5468 379.275 71.7231C380.108 62.3339 381.498 52.7829 385.8 44.3549C390.4 35.33 398.037 28.1566 406.117 21.9444C415.884 14.4371 426.773 7.94156 438.866 5.27051" fill="#7A4514"/>
</g>
<defs>
<clipPath id="clip0_56_140">
<rect width="624" height="423.473" fill="white" transform="matrix(-1 0 0 1 624 0)"/>
</clipPath>
</defs>
</svg>
