<svg width="673" height="482" viewBox="0 0 673 482" fill="none" xmlns="http://www.w3.org/2000/svg">
<g clip-path="url(#clip0_56_37)">
<path d="M453.714 237.286C511.435 224.976 557.546 174.536 561.919 118.914C569.434 136.522 570.722 156.433 565.538 174.766C595.098 155.949 611.793 121.574 610.594 87.9703C609.395 54.3668 591.357 22.1912 564.561 0C616.477 10.7329 664.586 48.747 672.001 98.3462C679.416 147.888 644.706 196.692 598.784 221.774C602.68 222.672 607.031 221.601 609.962 219.022C595.165 239.543 570.056 252.142 544.137 256.483C518.218 260.825 491.455 257.6 465.935 251.52C461.251 250.403 456.2 248.929 453.503 245.163C450.805 241.386 452.615 234.81 457.432 234.534" fill="#7A4514"/>
<path d="M413.707 344.891L465.446 344.891C472.961 344.891 479.055 351.213 479.055 359.01L479.055 458.888C479.055 471.636 469.076 482 456.777 482H413.696C406.181 482 400.087 475.678 400.087 467.881L400.087 359.021C400.087 351.225 406.181 344.903 413.696 344.903L413.707 344.891Z" fill="#7A4514"/>
<path d="M406.748 413.446L464.492 413.446C466.012 413.446 467.256 414.736 467.256 416.313V454.696C467.256 469.759 455.467 482 440.937 482H400.943C384.303 482 370.805 467.985 370.805 450.734C370.805 430.155 386.912 413.446 406.748 413.446Z" fill="#7A4514"/>
<path d="M138.852 344.891L190.591 344.891C198.106 344.891 204.2 351.213 204.2 359.01L204.2 458.888C204.2 471.636 194.221 482 181.922 482H138.841C131.326 482 125.232 475.678 125.232 467.881L125.232 359.021C125.232 351.225 131.326 344.903 138.841 344.903L138.852 344.891Z" fill="#7A4514"/>
<path d="M131.893 413.446L189.637 413.446C191.157 413.446 192.401 414.736 192.401 416.313V454.696C192.401 469.759 180.612 482 166.082 482H126.088C109.448 482 95.9502 467.985 95.9502 450.734C95.9502 430.155 112.057 413.446 131.893 413.446Z" fill="#7A4514"/>
<path d="M93.586 27.6273C75.9032 32.0839 58.2093 36.5521 40.5265 41.0088C33.389 42.8053 26.1294 44.6593 19.8245 48.5748C2.86321 59.1119 -3.10875 82.8808 1.49787 102.826C6.10449 122.772 19.1695 139.447 33.2336 153.865C49.1626 170.195 66.8897 184.613 85.7824 197.073C107.228 211.215 132.937 223.191 157.435 216.143C166.193 213.621 174.463 208.554 179.846 200.954C188.46 188.781 188.527 172.383 187.173 157.354C184.941 132.515 179.813 107.963 171.932 84.4009C168.546 74.2669 164.528 64.1098 157.779 55.968C150.553 47.262 140.64 41.4349 130.517 36.7824C118.295 31.1627 105.164 26.9709 91.7988 27.3278" fill="#5C320A"/>
<path d="M498.68 49.6216L100.412 49.6216C89.733 49.6216 81.0757 58.6031 81.0757 69.6824L81.0757 341.781C81.0757 352.86 89.733 361.842 100.412 361.842L498.68 361.842C509.359 361.842 518.017 352.86 518.017 341.781L518.017 69.6824C518.017 58.6031 509.359 49.6216 498.68 49.6216Z" fill="#92CEC6"/>
<path d="M81.0757 327.075L518.028 327.075V363.074C518.028 371.135 511.712 377.688 503.942 377.688L95.1731 377.688C87.4029 377.688 81.0868 371.135 81.0868 363.074L81.0868 327.075H81.0757Z" fill="#5B7D79"/>
<path d="M197.486 90.8955L161.909 90.8955C146.105 90.8955 133.292 104.187 133.292 120.584L133.292 263.404C133.292 279.801 146.105 293.093 161.909 293.093H197.486C213.29 293.093 226.102 279.801 226.102 263.404L226.102 120.584C226.102 104.187 213.29 90.8955 197.486 90.8955Z" fill="#496360"/>
<path d="M446.431 97.4596C446.431 93.8343 443.598 90.8955 440.104 90.8955C436.61 90.8955 433.777 93.8343 433.777 97.4596L433.777 286.528C433.777 290.154 436.61 293.093 440.104 293.093C443.598 293.093 446.431 290.154 446.431 286.528L446.431 97.4596Z" fill="#496360"/>
<path d="M468.987 158.102C468.987 154.477 466.155 151.538 462.66 151.538C459.166 151.538 456.333 154.477 456.333 158.102L456.333 286.528C456.333 290.153 459.166 293.092 462.66 293.092C466.155 293.092 468.987 290.153 468.987 286.528L468.987 158.102Z" fill="#496360"/>
<path d="M201.325 6.71301C183.121 6.5633 164.916 6.40208 146.723 6.25237C139.375 6.19479 131.904 6.14873 124.867 8.34828C105.93 14.2675 94.5406 35.8023 94.3186 56.3237C94.0966 76.8452 102.833 96.3071 113.078 113.857C124.689 133.722 138.476 152.206 153.872 169.076C171.344 188.227 193.455 206.354 218.864 205.72C227.955 205.501 237.168 202.668 244.173 196.657C255.384 187.041 259.313 171.149 261.545 156.236C265.23 131.592 266.04 106.476 263.942 81.6358C263.043 70.949 261.545 60.0779 256.905 50.4851C251.943 40.2129 243.706 32.0481 234.993 24.9773C224.458 16.4325 212.714 9.03923 199.672 5.99902" fill="#7A4514"/>
</g>
<defs>
<clipPath id="clip0_56_37">
<rect width="673" height="482" fill="white"/>
</clipPath>
</defs>
</svg>
