<svg width="390" height="265" viewBox="0 0 390 265" fill="none" xmlns="http://www.w3.org/2000/svg">
<g clip-path="url(#clip0_56_274)">
<path d="M127.068 130.029C93.6206 123.283 66.9012 95.6427 64.367 65.1627C60.0124 74.8116 59.2662 85.7225 62.2701 95.7689C45.1411 85.4575 35.4671 66.6205 36.1618 48.2063C36.8565 29.7921 47.3088 12.1604 62.8361 0C32.7527 5.88143 4.87562 26.7126 0.578918 53.8921C-3.71779 81.0401 16.3957 107.784 43.0057 121.529C40.748 122.021 38.2265 121.434 36.5284 120.02C45.1025 131.266 59.6522 138.169 74.6713 140.549C89.6905 142.928 105.198 141.161 119.986 137.829C122.7 137.217 125.627 136.409 127.19 134.345C128.753 132.275 127.705 128.672 124.913 128.521" fill="#7A4514"/>
<path d="M150.25 188.995L120.269 188.995C115.915 188.995 112.383 192.46 112.383 196.732L112.383 251.463C112.383 258.449 118.166 264.129 125.293 264.129H150.256C154.611 264.129 158.142 260.664 158.142 256.392L158.142 196.738C158.142 192.466 154.611 189.001 150.256 189.001L150.25 188.995Z" fill="#7A4514"/>
<path d="M154.283 226.562L120.823 226.562C119.941 226.562 119.221 227.268 119.221 228.133V249.166C119.221 257.42 126.052 264.128 134.472 264.128H157.647C167.289 264.128 175.11 256.448 175.11 246.995C175.11 235.718 165.777 226.562 154.283 226.562Z" fill="#7A4514"/>
<path d="M309.518 188.995L279.537 188.995C275.183 188.995 271.652 192.46 271.652 196.732V251.463C271.652 258.449 277.434 264.129 284.561 264.129H309.524C313.879 264.129 317.41 260.664 317.41 256.392L317.41 196.738C317.41 192.466 313.879 189.001 309.524 189.001L309.518 188.995Z" fill="#7A4514"/>
<path d="M313.551 226.562L280.091 226.562C279.21 226.562 278.489 227.268 278.489 228.133V249.166C278.489 257.42 285.32 264.128 293.74 264.128H316.915C326.557 264.128 334.378 256.448 334.378 246.995C334.378 235.718 325.045 226.562 313.551 226.562Z" fill="#7A4514"/>
<path d="M335.748 15.1396C345.995 17.5817 356.248 20.0302 366.494 22.4724C370.63 23.4569 374.837 24.4729 378.49 26.6185C388.318 32.3926 391.779 45.4176 389.11 56.3474C386.44 67.2773 378.87 76.415 370.72 84.3158C361.49 93.2642 351.218 101.165 340.27 107.993C327.843 115.742 312.946 122.305 298.75 118.443C293.675 117.061 288.883 114.285 285.764 110.12C280.772 103.449 280.734 94.4632 281.518 86.2279C282.811 72.616 285.783 59.1619 290.35 46.2506C292.312 40.6973 294.64 35.1314 298.551 30.6698C302.738 25.899 308.482 22.7059 314.348 20.1564C321.43 17.0769 329.039 14.7799 336.784 14.9755" fill="#5C320A"/>
<path d="M101.012 27.1924L331.792 27.1924C337.98 27.1924 342.997 32.1141 342.997 38.1854L342.997 187.291C342.997 193.362 337.98 198.284 331.792 198.284L101.012 198.284C94.8234 198.284 89.8068 193.362 89.8068 187.291L89.8068 38.1854C89.8068 32.1141 94.8234 27.1924 101.012 27.1924Z" fill="#D1562F"/>
<path d="M342.997 179.232L89.8004 179.232V198.959C89.8004 203.377 93.4603 206.967 97.9628 206.967L334.828 206.967C339.331 206.967 342.991 203.377 342.991 198.959V179.232H342.997Z" fill="#9F3919"/>
<path d="M275.543 49.8096L296.158 49.8096C305.316 49.8096 312.74 57.0933 312.74 66.0782L312.74 144.342C312.74 153.326 305.316 160.61 296.158 160.61H275.543C266.385 160.61 258.961 153.326 258.961 144.342L258.961 66.0782C258.961 57.0933 266.385 49.8096 275.543 49.8096Z" fill="#9F3919"/>
<path d="M131.288 53.4066C131.288 51.42 132.93 49.8096 134.955 49.8096C136.98 49.8096 138.621 51.42 138.621 53.4066L138.621 157.013C138.621 159 136.98 160.61 134.955 160.61C132.93 160.61 131.288 159 131.288 157.013L131.288 53.4066Z" fill="#9F3919"/>
<path d="M118.218 86.638C118.218 84.6515 119.859 83.041 121.884 83.041C123.909 83.041 125.55 84.6515 125.55 86.638L125.55 157.013C125.55 159 123.909 160.61 121.884 160.61C119.859 160.61 118.218 159 118.218 157.013L118.218 86.638Z" fill="#9F3919"/>
<path d="M273.317 3.67934C283.866 3.5973 294.415 3.50896 304.957 3.42692C309.216 3.39537 313.544 3.37012 317.622 4.57544C328.596 7.81906 335.195 19.6198 335.324 30.8652C335.452 42.1106 330.39 52.7754 324.453 62.3927C317.725 73.2784 309.737 83.4068 300.815 92.6518C290.691 103.146 277.878 113.079 263.155 112.732C257.887 112.612 252.548 111.06 248.489 107.766C241.993 102.496 239.716 93.7877 238.423 85.6155C236.287 72.1109 235.818 58.3476 237.033 44.7358C237.555 38.8796 238.423 32.9224 241.111 27.6657C243.987 22.0367 248.759 17.5625 253.809 13.6879C259.913 9.00544 266.718 4.95407 274.276 3.28809" fill="#7A4514"/>
</g>
<defs>
<clipPath id="clip0_56_274">
<rect width="389.977" height="264.128" fill="white" transform="matrix(-1 0 0 1 389.978 0)"/>
</clipPath>
</defs>
</svg>
