<svg width="737" height="508" viewBox="0 0 737 508" fill="none" xmlns="http://www.w3.org/2000/svg">
<g clip-path="url(#clip0_56_157)">
<path d="M375.244 376.603H426.637C434.101 376.603 440.155 382.662 440.155 390.134V485.86C440.155 498.078 430.242 508.012 418.025 508.012H375.233C367.769 508.012 361.716 501.952 361.716 494.48V390.145C361.716 382.673 367.769 376.614 375.233 376.614L375.244 376.603Z" fill="#E7E7E7"/>
<path d="M368.333 442.297H425.69C427.2 442.297 428.435 443.533 428.435 445.045V481.832C428.435 496.269 416.726 508.002 402.293 508.002H362.566C346.038 508.002 332.63 494.569 332.63 478.035C332.63 458.312 348.629 442.297 368.333 442.297Z" fill="#E7E7E7"/>
<path d="M102.232 376.603H153.624C161.088 376.603 167.142 382.662 167.142 390.134V485.86C167.142 498.078 157.229 508.012 145.012 508.012H102.221C94.7559 508.012 88.7026 501.952 88.7026 494.48V390.145C88.7026 382.673 94.7559 376.614 102.221 376.614L102.232 376.603Z" fill="#E7E7E7"/>
<path d="M95.3196 442.297H152.677C154.187 442.297 155.422 443.533 155.422 445.045V481.832C155.422 496.269 143.713 508.002 129.28 508.002H89.553C73.0251 508.002 59.6174 494.569 59.6174 478.035C59.6174 458.312 75.6162 442.297 95.3196 442.297Z" fill="#E7E7E7"/>
<path d="M315.32 223.262C366.701 252.621 432.725 247.091 485.793 220.922C538.861 194.753 580.848 150.504 617.08 103.673C637.489 77.2944 664.315 46.4784 696.985 53.0897C724.319 58.6194 739.832 90.4287 736.568 118.154C733.316 145.88 716.281 169.853 698.716 191.541C680.667 213.825 661.261 235.337 637.974 252.058C569.943 300.92 479.817 302.399 396.119 300.004C377.099 299.463 357.12 298.536 340.889 288.602C323.104 277.709 313.038 257.974 303.842 239.233C302.133 235.734 300.446 231.44 302.552 228.173C304.889 224.564 310.138 224.752 314.394 225.37C324.483 226.827 334.571 228.284 344.671 229.73" fill="#E7E7E7"/>
<path d="M150.991 77.2393L90.6563 39.9776L34.6001 5.35381C17.0246 -5.4958 -2.09448 6.62309 0.187901 27.1634L2.93338 51.8868C3.06569 52.1738 3.18697 52.4718 3.28621 52.8029C10.3539 77.4932 14.9848 102.824 28.7011 124.964C39.3853 142.205 52.9914 157.37 63.6977 174.555C67.0937 173.76 70.4015 172.424 73.5329 170.449L103.061 151.73L155.566 118.463C169.206 109.821 166.67 86.919 150.991 77.2393Z" fill="#D0D0D0"/>
<path d="M459.663 93.5957H64.0613C53.4534 93.5957 44.854 102.204 44.854 112.823V373.61C44.854 384.229 53.4534 392.837 64.0613 392.837H459.663C470.271 392.837 478.871 384.229 478.871 373.61V112.823C478.871 102.204 470.271 93.5957 459.663 93.5957Z" fill="#D1562F"/>
<path d="M44.854 359.517H478.871V394.019C478.871 401.745 472.597 408.025 464.879 408.025H58.846C51.1278 408.025 44.854 401.745 44.854 394.019V359.517Z" fill="#9F3919"/>
<path d="M160.473 133.154H125.135C109.436 133.154 96.7095 145.894 96.7095 161.608V298.492C96.7095 314.207 109.436 326.946 125.135 326.946H160.473C176.172 326.946 188.898 314.207 188.898 298.492V161.608C188.898 145.894 176.172 133.154 160.473 133.154Z" fill="#DD714F"/>
<path d="M384.128 151.236H378.686C376.268 151.236 374.308 162.113 374.308 175.53V292.398C374.308 305.815 376.268 316.692 378.686 316.692H384.128C386.546 316.692 388.506 305.815 388.506 292.398V175.53C388.506 162.113 386.546 151.236 384.128 151.236Z" fill="#DD714F"/>
<path d="M357.023 151.236H351.581C349.163 151.236 347.203 162.113 347.203 175.53V292.398C347.203 305.815 349.163 316.692 351.581 316.692H357.023C359.441 316.692 361.401 305.815 361.401 292.398V175.53C361.401 162.113 359.441 151.236 357.023 151.236Z" fill="#DD714F"/>
<path d="M229.661 161.608C228.327 179.996 209.208 192.832 195.249 184.708L141.519 153.462L111.297 135.88C86.8964 121.686 89.8183 81.4992 116.556 63.5416L149.678 41.3126L204.378 4.59175C221.524 -6.92009 241.095 4.4593 239.596 25.0769L234.81 90.8367L229.661 161.608Z" fill="#E7E7E7"/>
<path d="M205.293 135.086C204.478 146.299 192.812 154.136 184.3 149.18L151.52 130.119L133.084 119.391C118.199 110.726 119.974 86.2126 136.293 75.2527L156.503 61.6879L189.879 39.2823C200.343 32.2626 212.273 39.205 211.358 51.7764L208.436 91.8968L205.293 135.074V135.086Z" fill="#F29595"/>
</g>
<defs>
<clipPath id="clip0_56_157">
<rect width="737" height="508" fill="white"/>
</clipPath>
</defs>
</svg>
