<svg width="654" height="451" viewBox="0 0 654 451" fill="none" xmlns="http://www.w3.org/2000/svg">
<g clip-path="url(#clip0_56_174)">
<path d="M321.014 333.698H275.41C268.786 333.698 263.414 339.067 263.414 345.688V430.509C263.414 441.335 272.21 450.137 283.051 450.137H321.024C327.648 450.137 333.019 444.768 333.019 438.147V345.698C333.019 339.077 327.648 333.708 321.024 333.708L321.014 333.698Z" fill="#E7E7E7"/>
<path d="M327.148 391.908H276.25C274.91 391.908 273.814 393.004 273.814 394.343V426.94C273.814 439.732 284.205 450.127 297.013 450.127H332.265C346.932 450.127 358.83 438.225 358.83 423.575C358.83 406.099 344.633 391.908 327.148 391.908Z" fill="#E7E7E7"/>
<path d="M563.28 333.698H517.676C511.052 333.698 505.68 339.067 505.68 345.688V430.509C505.68 441.335 514.476 450.137 525.317 450.137H563.29C569.914 450.137 575.285 444.768 575.285 438.147V345.698C575.285 339.077 569.914 333.708 563.29 333.708L563.28 333.698Z" fill="#E7E7E7"/>
<path d="M569.414 391.908H518.516C517.176 391.908 516.08 393.004 516.08 394.343V426.94C516.08 439.732 526.471 450.127 539.279 450.127H574.531C589.198 450.127 601.096 438.225 601.096 423.575C601.096 406.099 586.899 391.908 569.414 391.908Z" fill="#E7E7E7"/>
<path d="M374.191 197.827C328.596 223.842 270.008 218.942 222.917 195.754C175.825 172.566 138.566 133.359 106.415 91.863C88.3046 68.4892 64.4994 41.1839 35.5086 47.042C11.2534 51.9417 -2.51306 80.1272 0.383087 104.694C3.26944 129.261 18.3862 150.503 33.9725 169.72C49.9893 189.466 67.2097 208.526 87.8741 223.343C148.243 266.638 228.22 267.949 302.492 265.826C319.37 265.347 337.099 264.526 351.501 255.724C367.283 246.071 376.216 228.585 384.377 211.979C385.893 208.879 387.39 205.074 385.521 202.179C383.447 198.981 378.79 199.148 375.013 199.695C366.06 200.986 357.108 202.277 348.145 203.558" fill="#E7E7E7"/>
<path d="M520.014 68.4397L573.553 35.423L623.296 4.74372C638.892 -4.86985 655.858 5.8684 653.833 24.0686L651.397 45.9754C651.279 46.2297 651.172 46.4938 651.084 46.7872C644.812 68.6646 640.703 91.1093 628.531 110.728C619.05 126.004 606.976 139.441 597.476 154.668C594.462 153.964 591.527 152.781 588.748 151.03L562.546 134.444L515.953 104.967C503.85 97.3097 506.1 77.0166 520.014 68.4397Z" fill="#D0D0D0"/>
<path d="M246.103 82.9336H597.153C606.566 82.9336 614.197 90.5611 614.197 99.97V331.048C614.197 340.457 606.566 348.084 597.153 348.084H246.103C236.69 348.084 229.059 340.457 229.059 331.048V99.97C229.059 90.5611 236.69 82.9336 246.103 82.9336Z" fill="#45B1AB"/>
<path d="M614.197 318.559H229.059V349.13C229.059 355.976 234.626 361.541 241.475 361.541H601.781C608.63 361.541 614.197 355.976 614.197 349.13V318.559Z" fill="#17514A"/>
<path d="M511.6 117.984H542.958C556.889 117.984 568.182 129.272 568.182 143.197V264.486C568.182 278.411 556.889 289.699 542.958 289.699H511.6C497.669 289.699 486.376 278.411 486.376 264.486V143.197C486.376 129.272 497.669 117.984 511.6 117.984Z" fill="#58CDB1"/>
<path d="M313.131 134.007H317.961C320.106 134.007 321.846 143.644 321.846 155.533V259.087C321.846 270.975 320.106 280.613 317.961 280.613H313.131C310.986 280.613 309.247 270.975 309.247 259.087V155.533C309.247 143.644 310.986 134.007 313.131 134.007Z" fill="#58CDB1"/>
<path d="M337.184 134.007H342.014C344.159 134.007 345.898 143.644 345.898 155.533V259.087C345.898 270.975 344.159 280.613 342.014 280.613H337.184C335.039 280.613 333.299 270.975 333.299 259.087V155.533C333.299 143.644 335.039 134.007 337.184 134.007Z" fill="#58CDB1"/>
<path d="M450.203 143.197C451.386 159.49 468.352 170.864 480.739 163.666L528.418 135.979L555.237 120.4C576.889 107.823 574.296 72.2149 550.57 56.3031L521.178 36.6066L472.638 4.06908C457.423 -6.13128 440.056 3.95172 441.387 22.2204L445.633 80.4886L450.203 143.197Z" fill="#E7E7E7"/>
<path d="M471.827 119.696C472.551 129.633 482.903 136.576 490.456 132.185L519.545 115.295L535.904 105.789C549.113 98.1122 547.537 76.3912 533.057 66.6798L515.122 54.6604L485.505 34.8074C476.22 28.5874 465.633 34.7389 466.445 45.8782L469.038 81.4278L471.827 119.686V119.696Z" fill="#F29595"/>
</g>
<defs>
<clipPath id="clip0_56_174">
<rect width="654" height="450.126" fill="white" transform="matrix(-1 0 0 1 654 0)"/>
</clipPath>
</defs>
</svg>
