<svg width="398" height="274" viewBox="0 0 398 274" fill="none" xmlns="http://www.w3.org/2000/svg">
<g clip-path="url(#clip0_56_294)">
<path d="M195.358 203.076H167.604C163.573 203.076 160.304 206.344 160.304 210.373V261.991C160.304 268.58 165.657 273.936 172.255 273.936H195.364C199.395 273.936 202.664 270.669 202.664 266.64V210.379C202.664 206.35 199.395 203.082 195.364 203.082L195.358 203.076Z" fill="#E7E7E7"/>
<path d="M199.09 238.5H168.115C167.3 238.5 166.633 239.167 166.633 239.982V259.819C166.633 267.603 172.956 273.93 180.751 273.93H202.204C211.13 273.93 218.37 266.687 218.37 257.771C218.37 247.136 209.73 238.5 199.09 238.5Z" fill="#E7E7E7"/>
<path d="M342.792 203.076H315.039C311.008 203.076 307.739 206.344 307.739 210.373V261.991C307.739 268.58 313.092 273.936 319.689 273.936H342.798C346.829 273.936 350.098 270.669 350.098 266.64V210.379C350.098 206.35 346.829 203.082 342.798 203.082L342.792 203.076Z" fill="#E7E7E7"/>
<path d="M346.525 238.5H315.551C314.735 238.5 314.068 239.167 314.068 239.982V259.819C314.068 267.603 320.391 273.93 328.186 273.93H349.639C358.565 273.93 365.805 266.687 365.805 257.771C365.805 247.136 357.165 238.5 346.525 238.5Z" fill="#E7E7E7"/>
<path d="M227.718 120.39C199.971 136.221 164.317 133.24 135.658 119.128C107 105.017 84.3261 81.1569 64.7601 55.9042C53.7386 41.6797 39.2517 25.0628 21.609 28.6278C6.84819 31.6096 -1.52959 48.7622 0.232895 63.7127C1.98943 78.6632 11.1889 91.5902 20.6742 103.285C30.4214 115.301 40.9011 126.901 53.4766 135.918C90.2149 162.266 138.886 163.063 184.085 161.772C194.356 161.48 205.146 160.98 213.91 155.624C223.515 149.75 228.951 139.108 233.917 129.002C234.84 127.115 235.751 124.8 234.614 123.039C233.351 121.092 230.517 121.194 228.219 121.527C222.77 122.312 217.322 123.098 211.868 123.878" fill="#E7E7E7"/>
<path d="M316.461 41.65L349.043 21.5573L379.315 2.887C388.806 -2.96346 399.131 3.57144 397.898 14.6474L396.416 27.9791C396.344 28.1338 396.279 28.2945 396.225 28.4731C392.409 41.7869 389.908 55.4459 382.501 67.3849C376.731 76.6813 369.383 84.8589 363.601 94.1256C361.768 93.697 359.981 92.9769 358.29 91.9116L342.344 81.8176L313.99 63.8794C306.624 59.2192 307.994 46.8696 316.461 41.65Z" fill="#D0D0D0"/>
<path d="M149.77 50.4697H363.405C369.134 50.4697 373.778 55.1115 373.778 60.8375V201.463C373.778 207.189 369.134 211.83 363.405 211.83H149.77C144.041 211.83 139.397 207.189 139.397 201.463V60.8375C139.397 55.1115 144.041 50.4697 149.77 50.4697Z" fill="#45B1AB"/>
<path d="M373.778 193.863H139.397V212.468C139.397 216.634 142.785 220.021 146.953 220.021H366.222C370.39 220.021 373.778 216.634 373.778 212.468V193.863Z" fill="#17514A"/>
<path d="M311.34 71.8008H330.424C338.902 71.8008 345.774 78.6702 345.774 87.1441V160.956C345.774 169.43 338.902 176.3 330.424 176.3H311.34C302.863 176.3 295.99 169.43 295.99 160.956V87.1441C295.99 78.6702 302.863 71.8008 311.34 71.8008Z" fill="#58CDB1"/>
<path d="M190.56 81.5518H193.499C194.805 81.5518 195.863 87.4167 195.863 94.6516V157.671C195.863 164.906 194.805 170.771 193.499 170.771H190.56C189.254 170.771 188.196 164.906 188.196 157.671V94.6516C188.196 87.4167 189.254 81.5518 190.56 81.5518Z" fill="#58CDB1"/>
<path d="M205.198 81.5518H208.137C209.443 81.5518 210.501 87.4167 210.501 94.6516V157.671C210.501 164.906 209.443 170.771 208.137 170.771H205.198C203.892 170.771 202.834 164.906 202.834 157.671V94.6516C202.834 87.4167 203.892 81.5518 205.198 81.5518Z" fill="#58CDB1"/>
<path d="M273.977 87.1438C274.697 97.0592 285.022 103.981 292.56 99.6006L321.576 82.7515L337.897 73.2706C351.074 65.6168 349.496 43.9469 335.057 34.2635L317.17 22.277L287.63 2.47587C278.371 -3.73169 267.802 2.40445 268.612 13.5221L271.196 48.9819L273.977 87.1438Z" fill="#E7E7E7"/>
<path d="M287.136 72.8422C287.577 78.8891 293.876 83.1147 298.473 80.4425L316.175 70.164L326.131 64.379C334.169 59.707 333.211 46.4884 324.398 40.5784L313.484 33.2638L295.46 21.182C289.81 17.3968 283.367 21.1404 283.861 27.9193L285.439 49.5535L287.136 72.8363V72.8422Z" fill="#F29595"/>
</g>
<defs>
<clipPath id="clip0_56_294">
<rect width="398" height="273.93" fill="white" transform="matrix(-1 0 0 1 398 0)"/>
</clipPath>
</defs>
</svg>
