<svg width="206" height="76" viewBox="0 0 206 76" fill="none" xmlns="http://www.w3.org/2000/svg">
<path fill-rule="evenodd" clip-rule="evenodd" d="M6.22253 75.3794C12.1911 75.2588 12.4918 75.214 13.5739 74.2802C15.7915 72.3664 15.8461 71.9442 15.8461 56.7224C15.8461 41.1353 15.7731 40.6561 13.169 39.1725C12.0714 38.5472 11.0206 38.4405 5.94231 38.4394L0 38.4378V56.9714V75.5048L6.22253 75.3794ZM2.91903 37.6586H5.83806V29.4773V21.2959H7.9231H10.0081V29.4773V37.6586H13.1356H16.2632V18.9583V0.258005H13.1356H10.0081V7.66019V15.0624H7.9231H5.83806V7.66019V0.258005H2.91903H0V18.9583V37.6586H2.91903ZM7.46143 43.5025C8.55692 43.5025 9.16701 43.7027 9.338 44.1188C9.47728 44.4577 9.5911 50.2081 9.5911 56.8974C9.5911 65.8373 9.45849 69.1833 9.09069 69.5269C8.81546 69.7844 7.97105 69.9945 7.21417 69.9945H5.83806V56.7485V43.5025H7.46143ZM25.0202 75.4485H32.1093V72.7215V69.9945H28.1478H24.1862V64.5403V59.0861H27.3138H30.4413V56.3589V53.6318H27.3138H24.1862V48.5671V43.5025H27.9393H31.6923V40.9701V38.4378H24.8118H17.9312V56.9433V75.4485H25.0202ZM18.5041 34.1048C20.1618 38.3856 28.1578 39.4803 31.9425 35.9444C33.6335 34.3646 34.1889 32.472 34.1918 28.2804C34.1952 23.7382 33.523 22.1674 29.395 17.0735C25.2504 11.9589 24.7171 11.0687 24.569 9.01597C24.3489 5.96277 24.5248 5.35579 25.7108 5.078C27.4001 4.6818 27.9393 5.70174 27.9393 9.293V12.3353H30.9033H33.8674L33.7177 7.93486C33.5559 3.17019 33.1376 2.07427 30.9751 0.750446C29.2504 -0.305339 22.999 -0.229374 21.4277 0.86654C18.8444 2.66839 18.5567 3.42031 18.5567 8.37163C18.5567 12.6177 18.6338 13.0494 19.7168 14.8743C20.3552 15.9495 21.9991 18.141 23.3706 19.7441C24.7421 21.3476 26.3309 23.5267 26.9017 24.5864C28.702 27.9298 28.0915 32.5939 25.8543 32.5939C24.3193 32.5939 23.7692 31.1318 23.7692 27.0528V23.2438H20.8502H17.9312L17.9629 28.0162C17.9808 30.7193 18.2156 33.3595 18.5041 34.1048ZM34.2202 72.815C35.3815 74.8691 37.5979 75.8382 41.1349 75.8382C44.8284 75.8382 47.0256 74.8664 48.4 72.6246C49.3203 71.1229 49.415 70.5333 49.415 66.2934C49.415 60.7496 49.382 60.6744 44.054 54.1293C39.8643 48.9824 38.9574 46.7286 40.022 44.1122C40.5224 42.8827 42.2879 42.7338 42.9368 43.8663C43.1741 44.2808 43.3684 45.9463 43.3684 47.5674V50.5151H46.3325H49.2966L49.1298 46.1322C48.8641 39.1364 47.5677 37.853 41.024 38.1086C37.1425 38.2605 35.7718 38.9069 34.4845 41.1926C33.8607 42.301 33.7569 43.2586 33.8765 46.814C34.0475 51.904 34.1117 52.043 39.2167 58.3735C42.4982 62.4432 42.9135 63.1472 43.1716 65.0768C43.33 66.2627 43.2925 67.8985 43.0882 68.711C42.775 69.9559 42.524 70.21 41.499 70.3205C39.6045 70.5238 39.1984 69.6279 39.1984 65.2451V61.4236H36.2793H33.3603L33.3787 66.3909C33.3941 70.5624 33.5288 71.5912 34.2202 72.815ZM36.1405 37.3988C36.2931 37.5418 39.4832 37.6586 43.2296 37.6586H50.0405V34.7367V31.8148H46.0789H42.1174V26.3605V20.9063H45.0364H47.9555V18.1791V15.452H45.0364H42.1174V10.5822V5.71226H45.8704H49.6235V2.98513V0.258005H42.7429H35.8624V18.6984C35.8624 28.8411 35.9874 37.2562 36.1405 37.3988ZM54.419 75.4485H57.5465V56.9433V38.4378H54.419H51.2915V56.9433V75.4485H54.419ZM58.5482 37.6586H61.2179L61.4889 35.2237C62.0239 30.4232 61.9164 30.5918 64.3604 30.7243L66.5122 30.8408L66.8754 34.2497L67.2386 37.6586H70.1071C72.2135 37.6586 72.9755 37.5211 72.9755 37.1413C72.9755 36.8568 71.851 28.5734 70.4762 18.7331C69.1013 8.89324 67.9754 0.704086 67.9741 0.535002C67.9729 0.36592 66.3299 0.278263 64.3229 0.340207L60.6741 0.452799L60.1783 4.34869C59.9056 6.49144 58.8268 14.801 57.7805 22.8145C56.7347 30.828 55.8785 37.4459 55.8785 37.5215C55.8785 37.5971 57.0799 37.6586 58.5482 37.6586ZM60.5152 73.0245C62.4155 76.6108 66.7715 77.0208 69.7919 73.8973C71.3882 72.2465 71.4758 72.2587 71.9173 74.1826C72.1851 75.3496 72.3361 75.4485 73.8424 75.4485H75.4776V64.1507V52.8526H71.3077H67.1376V55.7746V58.6965H68.5971H70.0567V63.3462C70.0567 65.9035 69.8799 68.4304 69.6635 68.9617C69.1906 70.124 67.8987 70.5834 66.7365 70.0027C65.9087 69.5886 65.8866 69.2552 65.8866 57.1564C65.8866 50.3246 66.0005 44.4577 66.1398 44.1188C66.5067 43.2251 68.6731 43.3221 69.2081 44.2559C69.4453 44.6705 69.6397 46.1606 69.6397 47.5674V50.1255H72.6143H75.5893L75.392 46.2927C75.0452 39.5645 73.4057 37.9165 67.2723 38.1261C63.2658 38.2632 62.0268 38.8987 60.5699 41.5623C59.6483 43.2477 59.6316 43.5258 59.632 57.3181C59.6325 70.8335 59.6654 71.4204 60.5152 73.0245ZM63.4301 18.0763C63.7195 15.1267 64.0814 12.8476 64.2345 13.0116C64.3871 13.1753 64.7403 15.5883 65.0193 18.3739C65.2979 21.1595 65.6198 23.7452 65.7344 24.1204C65.9087 24.6911 65.6623 24.8021 64.2186 24.8021C62.7767 24.8021 62.5281 24.6907 62.699 24.1204C62.8117 23.7452 63.1407 21.0255 63.4301 18.0763ZM77.1461 37.6586H80.0645V29.2824V20.9063H81.4407C83.7338 20.9063 83.8179 21.1836 83.8179 28.7507C83.8179 32.5507 84.0008 36.1096 84.2242 36.6593C84.6058 37.5963 84.8074 37.6586 87.456 37.659L90.2816 37.6594L90.1779 29.7698C90.0553 20.5015 89.9261 19.5649 88.595 18.3217C87.6033 17.3945 87.6004 17.3723 88.3926 16.6325C89.7158 15.3959 90.1786 12.9006 89.9936 8.00303C89.7245 0.87161 88.9221 0.258005 79.8694 0.258005H74.2269V18.9583V37.6586H77.1461ZM80.4817 75.4485H83.4008L83.4342 65.4169L83.4683 55.385L86.2221 65.4169L88.9758 75.4485H91.401H93.8261V56.9433V38.4378H91.1151H88.4049L88.3672 48.0802C88.3236 59.0455 88.6196 59.231 85.2558 46.1322L83.2804 38.4378H80.4214H77.5625V56.9433V75.4485H80.4817ZM81.4407 5.32267C83.5909 5.32267 83.8179 5.80615 83.8179 10.3873C83.8179 14.9685 83.5909 15.452 81.4407 15.452H80.0645V10.3873V5.32267H81.4407ZM93.4046 5.71226H95.9016L96.0104 21.588L96.1192 37.4638L99.1428 37.5784L102.166 37.6929V21.7026V5.71226H104.668H107.17V2.98513V0.258005H99.0384H90.9069V2.98513V5.71226H93.4046ZM102.063 72.6937C103.199 74.7769 104.703 75.5841 107.792 75.7677C111.488 75.9873 113.191 75.6173 114.889 74.2246C116.691 72.7459 117.595 70.0969 117.595 66.2934C117.595 61.9137 116.845 60.2669 112.246 54.5505C108.159 49.4706 107.587 48.354 107.587 45.4492C107.587 43.7903 108.347 42.9941 109.753 43.1803C110.658 43.3002 110.727 43.5169 110.923 46.814L111.131 50.3203H114.051H116.97L116.931 46.2163C116.888 41.5206 116.435 40.2837 114.259 38.9076C112.95 38.0798 112.427 37.998 109.181 38.1141C105.133 38.2582 103.871 38.8313 102.375 41.2058C101.694 42.2846 101.543 43.2107 101.557 46.2296C101.577 50.7672 102.462 52.8207 106.468 57.6239C110.666 62.6566 110.92 63.1545 110.921 66.3589C110.923 69.8875 110.714 70.3842 109.225 70.3842C107.534 70.3842 107.17 69.4571 107.17 65.1504V61.4236H104.251H101.332L101.333 66.3909C101.333 70.3496 101.481 71.6291 102.063 72.6937ZM115.615 37.5799L118.22 37.4638L118.638 34.1523L119.055 30.8408L121.206 30.7243C123.65 30.5918 123.543 30.4232 124.078 35.2237L124.349 37.6586H127.28H130.212L129.976 36.1976C129.846 35.3939 128.659 26.9792 127.338 17.4974L124.935 0.258005H121.354H117.774L115.376 18.6661C114.057 28.7908 112.985 37.2141 112.993 37.3852C113.002 37.5558 114.181 37.6434 115.615 37.5799ZM120.202 72.708C121.504 75.0805 123.204 75.8382 127.222 75.8382C130.875 75.8382 132.572 75.0629 134.044 72.7209C134.786 71.541 134.92 70.5604 135.043 65.4169L135.184 59.4757H132.228H129.271V64.1764C129.271 69.5039 128.972 70.3842 127.161 70.3842C126.207 70.3842 125.819 70.1497 125.507 69.3846C125.278 68.8181 125.101 63.435 125.101 56.9433C125.101 50.4516 125.278 45.0686 125.507 44.5018C125.819 43.7366 126.207 43.5025 127.161 43.5025C128.913 43.5025 129.271 44.3896 129.271 48.7362V52.463H132.231H135.191L135.046 47.3009C134.924 42.9769 134.763 41.9176 134.052 40.7753C132.824 38.7993 130.934 38.0493 127.18 38.049C123.207 38.0482 121.499 38.8141 120.202 41.179C119.28 42.8585 119.263 43.1339 119.263 56.9433C119.263 70.7529 119.28 71.028 120.202 72.708ZM120.556 17.4958C120.837 14.6561 121.137 12.3969 121.221 12.4759C121.433 12.675 122.591 21.9854 122.596 23.536C122.598 24.7293 122.514 24.8021 121.107 24.8021C119.704 24.8021 119.627 24.7375 119.829 23.7308C119.947 23.1417 120.274 20.3359 120.556 17.4958ZM131.51 37.4981C131.824 37.6107 133.091 37.6492 134.325 37.5834L136.569 37.4638L136.777 27.5873L136.986 17.7108L139.452 26.8081C140.808 31.8117 142.071 36.2997 142.256 36.782C142.552 37.5472 142.888 37.6586 144.898 37.6586H147.202V18.9583V0.258005H144.492H141.781L141.736 9.90035L141.69 19.5427L139.152 9.90035L136.615 0.258005H133.777H130.94V18.7756C130.94 34.0904 131.038 37.329 131.51 37.4981ZM140.113 75.4485H143.033V67.2675V59.0861H145.118H147.202V67.2675V75.4485H150.33H153.457V56.9433V38.4378H150.33H147.202V45.84V53.2422H145.118H143.033V45.84V38.4378H140.113H137.194V56.9433V75.4485H140.113ZM155.438 37.5897C162.171 37.4213 163.329 37.0248 164.674 34.4297C165.515 32.8062 165.551 32.1693 165.55 18.7378C165.55 3.32836 165.505 3.03734 162.915 1.25964C161.88 0.548638 161.026 0.437993 155.722 0.32657L149.704 0.200347V18.9669V37.7334L155.438 37.5897ZM156.481 72.3244C158.018 75.1354 159.12 75.6437 163.674 75.6437C168.049 75.6437 169.198 75.1639 170.763 72.6809C171.549 71.4346 171.604 70.5475 171.716 57.3329C171.833 43.3868 171.828 43.2979 170.882 41.5775C169.325 38.7491 168.231 38.243 163.674 38.243C159.12 38.243 158.018 38.7514 156.481 41.5623C155.56 43.2449 155.543 43.5399 155.543 56.9433C155.543 70.3469 155.56 70.6417 156.481 72.3244ZM156.987 5.32267C157.989 5.32267 158.564 5.5537 158.864 6.07614C159.135 6.5491 159.296 11.3263 159.296 18.9049C159.296 32.1853 159.292 32.2043 156.764 32.2043H155.543V18.7635V5.32267H156.987ZM161.787 44.5018C162.095 43.746 162.489 43.5025 163.404 43.5025C165.727 43.5025 165.759 43.6829 165.759 56.9433C165.759 70.1457 165.692 70.5455 163.511 70.3069C161.538 70.0901 161.393 69.1779 161.387 56.8713C161.383 50.411 161.556 45.0698 161.787 44.5018ZM174.476 71.2571C175.849 74.8007 177.606 75.8382 182.237 75.8382C186.125 75.8382 188.09 74.8867 189.424 72.3576C190.343 70.6153 190.362 70.2975 190.362 56.9433C190.362 43.4089 190.355 43.2937 189.38 41.4443C187.956 38.7421 186.076 37.931 181.648 38.1082C177.733 38.2644 176.162 39.0401 174.88 41.4494C174.168 42.788 174.091 44.1091 174.005 56.3589C173.932 66.863 174.035 70.1179 174.476 71.2571ZM180.646 43.97C180.922 43.7128 181.677 43.5025 182.325 43.5025C183.205 43.5025 183.605 43.7545 183.909 44.5018C184.14 45.0686 184.316 50.4516 184.316 56.9433C184.316 63.435 184.14 68.8181 183.909 69.3846C183.605 70.1321 183.205 70.3842 182.325 70.3842C181.677 70.3842 180.922 70.1734 180.646 69.9166C179.93 69.2477 179.93 44.6389 180.646 43.97ZM199.328 75.4485H206V72.527V69.6049H202.247H198.494V54.0214V38.4378H195.575H192.656V56.9433V75.4485H199.328Z" fill="white"/>
</svg>
